<svg height="281pt" preserveAspectRatio="xMidYMid meet" viewBox="0 0 1525 281" width="1525pt" xmlns="http://www.w3.org/2000/svg"><g transform="matrix(.1 0 0 -.1 0 281)"><path d="m11465 2793c14-35 17-280 6-453-17-245-42-471-96-862-29-206-32-325-10-368 21-40 66-62 141-68l63-5-6 124c-12 264 57 515 186 675 110 138 240 166 267 58 10-41-3-181-36-384-65-393-34-477 180-487l85-4-31 25c-48 39-65 94-65 203 0 52 3 109 6 126 60 366 74 562 47 640-31 86-92 127-189 127-155 0-300-155-431-460-11-24-11-24-6 5 2 17 20 172 41 345 55 479 51 598-28 693-37 44-137 101-124 70z"/><path d="m1431 2769c-178-22-275-63-401-170-101-86-135-101-216-101-53 0-78 7-176 51-105 48-120 52-178 49-56-3-65-6-84-31-16-22-21-43-21-95 0-89 36-164 117-243 57-55 61-62 74-131 16-85 37-117 85-133 57-19 71-60 65-185-3-58-14-139-25-180-25-91-27-221-6-305 18-71 72-187 114-249 17-25 31-46 31-48s-105-2-234 0c-317 6-538-16-553-54-11-30 12-38 74-25 138 28 741 33 783 6 19-13-52-23-165-24-100-1-315-26-375-44-29-8-46-19-48-31-6-29 16-35 72-20 83 21 209 34 402 41 156 5 184 4 204-10 22-15 22-16-21-21-24-3-84-8-134-11-226-15-482-53-580-88-32-11-40-19-40-38 0-28 2-28 108 0 95 25 251 47 467 66 210 19 304 19 319 2 9-11-9-16-100-26-206-22-371-64-377-96-6-27 11-37 44-25 72 28 447 90 461 77 2-2 8-44 13-93 8-68 18-106 45-161 42-86 87-127 161-149 37-10 66-27 84-47l28-32-38-45c-43-52-90-125-90-140 0-5 12-10 28-10 21 0 32 8 45 32 10 18 37 55 60 82l43 49 37-14c42-15 42-16 22-83-20-65-20-66 15-66 24 0 30 4 31 23 0 12 6 37 13 56l12 34 127 1c141 1 137 3 152-78 6-32 11-36 36-36 32 0 32 8 8 84-14 45-12 51 28 65l37 14 43-49c23-27 50-64 60-81 13-25 24-33 45-33 16 0 28 5 28 10 0 15-61 109-98 151l-30 34 28 32c18 20 47 37 81 47 70 20 118 61 156 133 35 66 53 140 53 218 0 30 4 55 8 55s64-7 132-15c140-18 253-39 318-62 40-13 46-13 60 1 15 14 15 18 1 31-23 23-195 63-355 82-128 15-143 19-127 31 43 33 628-23 816-79 72-21 87-19 87 11 0 25-92 54-255 80-130 21-420 50-497 50-53 0-61 10-23 30 43 23 455-2 589-35 53-14 61-14 75 0 13 13 13 17 1 30-32 31-286 65-488 65-79 0-103 3-100 13 3 7 30 15 64 18 103 12 531 9 632-3 147-18 167-17 167 7 0 46-186 68-538 63-136-2-247-1-247 2s16 30 36 59c113 168 150 359 103 531-26 95-36 294-17 330 7 14 32 34 56 45 54 27 67 46 83 125 12 60 18 71 81 138 84 88 120 160 121 240 1 99-29 132-115 132-51 0-77-7-158-45-122-55-169-67-232-55-64 12-98 31-162 89-108 97-179 135-317 166-58 13-139 18-374 20-165 2-334-1-374-6zm714-63c116-21 210-67 300-147 112-100 207-131 325-107l35 8-40-25c-82-52-143-68-230-62-44 3-107 16-140 27-86 31-111 35-118 18-3-8-2-20 2-26 9-15 92-49 138-58 53-9 139-63 199-126 60-62 74-85 89-153 9-39 16-50 31-50 16 0 19 7 19 50-1 66-34 129-101 196-30 29-54 57-54 61s13 8 28 8c39 0 175 68 302 150 112 73 151 85 170 51 32-61-4-152-101-257-71-77-77-87-89-147-15-79-17-82-70-110-30-15-50-35-64-62-31-59-27-204 9-355 32-136 30-220-9-331-26-75-87-184-133-237-26-30-34-33-113-40-72-6-85-10-88-26-6-27 16-36 67-29 34 5 42 3 36-6-12-20-126-101-141-101-19 0-9 69 17 126 22 47 24 61 7 67-35 12-73-47-84-132-5-40-10-51-25-51-24 0-42-33-27-48 7-7 18-12 25-12 18 0 16-27-2-34-21-8-19-46 1-46 15 0 16-9 10-72-12-143-59-236-136-275-38-20-60-23-156-23-119 0-154 8-193 43-23 22-60 91-61 114 0 7 21 26 48 44 61 41 72 56 72 95 0 27 8 38 53 70 66 49 76 62 77 100 0 35-31 70-55 61-17-7-20-33-5-42 21-13 8-33-46-70-67-47-89-76-80-110 6-24-1-32-80-78-6-3-30 7-55 23-38 26-43 34-41 60 4 32-15 55-104 127-31 25-37 34-26 44 31 33-5 64-38 34-12-11-20-31-20-50 0-33 18-54 93-109 30-22 37-33 37-61 0-37 11-51 76-96 48-32 50-47 18-111-35-69-101-92-251-87-99 4-114 7-151 31-52 35-89 98-107 184-19 91-19 150 0 158 8 3 15 15 15 26s-7 20-15 20c-23 0-18 24 8 35 30 14 28 37-5 53-20 9-28 21-28 40 0 73-50 162-83 149-21-8-22-36-3-63 8-11 19-44 24-73 8-42 7-54-4-58-14-5-94 49-128 86l-19 21h52c38 0 53 4 58 16 10 25-8 33-96 40l-83 7-46 61c-86 117-142 268-142 389 0 32 9 93 19 135 44 172 46 304 6 381-17 34-51 61-77 61-23 0-33 22-49 100-11 60-17 70-80 135-104 108-146 220-101 275 17 21 20 21 52 7 19-8 73-40 120-72 110-73 235-135 287-142l41-5-59-58c-85-84-142-219-105-249 22-18 46 2 46 38 1 44 37 109 92 164 65 65 130 104 205 124 82 21 133 49 133 73 0 26-14 25-107-6-60-21-99-27-168-28-84-1-95 1-167 36-43 20-78 39-78 41 0 3 19 0 43-5 99-23 202 14 312 112 160 142 292 172 745 165 165-2 274-9 335-19zm-293-2417c25-13 69-23 114-26 40-3 71-10 68-15-6-10-99-58-113-58-5 0-18 16-30 35-11 19-27 35-36 35-21 0-31-29-17-51 22-35 14-39-84-39-88 0-95 2-89 18 4 9 10 29 13 45 7 41-30 37-58-8-12-19-26-35-31-35-16 0-97 41-109 54-8 10 6 14 64 19 86 6 143 32 183 82l27 34 29-35c16-19 47-44 69-55z"/><path d="m1253 2104c-6-16 4-51 38-131 13-31 24-43 39-43 28 0 26 29-8 115-28 70-55 94-69 59z"/><path d="m2030 2110c-15-10-9-145 8-162 22-22 42 0 42 44 0 97-18 138-50 118z"/><path d="m2204 2085c-7-19-21-51-29-71s-15-47-15-61c0-20 4-24 22-21 18 2 29 19 52 80 16 42 26 84 23 92-11 27-37 18-53-19z"/><path d="m1437 2103c-3-4-7-39-8-77-3-57-1-71 13-80 27-17 36 2 40 84 3 70 2 75-19 78-11 2-23 0-26-5z"/><path d="m1063 2053c-7-3-13-12-13-22 0-24 127-176 147-176 36 0 24 37-39 115-65 82-75 90-95 83z"/><path d="m2422 2052c-23-15-132-157-132-174 0-22 16-31 34-21 23 13 136 159 136 176s-22 28-38 19z"/><path d="m1203 1775c-14-38 79-86 214-109 86-15 117-34 141-84 22-46 46-49 50-5 7 72-49 117-182 143-53 11-118 31-146 45-57 29-69 31-77 10z"/><path d="m2238 1764c-26-14-88-33-137-44-109-23-146-41-172-83-25-41-22-92 5-92 13 0 23 11 31 34 16 50 49 69 145 87 47 9 113 29 148 45 54 24 63 32 60 51-4 31-24 31-80 2z"/><path d="m2409 1715c-68-35-146-58-234-70-106-14-183-71-205-151-14-50-9-189 8-206 6-6 18-8 28-4 14 6 16 16 11 71-6 65 0 78 22 51s100-56 148-56c67 0 112 15 156 51 59 49 82 101 81 185l-1 72 38 22c40 22 48 40 27 58-9 7-32 0-79-23zm-39-133c0-20-9-56-19-79-54-117-231-131-295-23-18 31-18 32 5 56 28 30 31 30 47-4 40-91 192-58 192 41 0 30 5 37 28 45 36 12 42 7 42-36zm-125 8c4-6-1-22-9-35-26-40-86-28-86 16 0 12 10 19 33 22 17 2 37 5 44 5 6 1 15-3 18-8z"/><path d="m1017 1733c-16-15-5-34 31-54l39-23-1-70c0-102 42-172 128-212 88-41 185-28 249 34l28 27-2-68c-3-76 10-102 37-75 22 22 30 139 14 198-16 58-80 124-136 139-22 6-78 17-123 25-49 9-114 29-158 50-76 36-94 41-106 29zm162-114c24-9 30-16 26-29-15-48 48-120 105-120 35 0 77 28 92 60 16 36 18 37 47 6 26-28 21-44-26-88-79-74-217-47-268 53-13 24-22 129-11 129 1 0 17-5 35-11zm180-35c2-2-1-15-7-29-20-44-92-24-92 26 0 18 4 20 48 13 26-3 49-8 51-10z"/><path d="m976 1345c-3-10 13-28 48-55 58-44 100-98 110-142 4-19 13-28 27-28 51 0 23 93-50 165s-122 93-135 60z"/><path d="m2453 1331c-80-58-145-156-129-197 11-28 47-12 60 27 17 48 46 85 99 123 50 36 57 45 50 63-8 21-37 15-80-16z"/><path d="m1603 1232c3-28 18-74 32-102 29-57 100-140 120-140 21 0 92 87 121 147 14 30 26 73 27 96 2 36-1 42-17 42-15 0-24-13-37-57-18-62-47-114-78-143-20-17-21-17-41 6-30 35-51 77-71 139-13 43-22 56-39 58-22 4-23 1-17-46z"/><path d="m1363 1182c-25-15-103-157-109-198-10-72 40-173 79-159 23 9 22 31-3 62-38 48-25 112 41 210 16 23 29 50 29 61 0 21-20 34-37 24z"/><path d="m2123 1183c-19-7-16-34 8-68 40-59 69-125 69-157 0-18-11-51-24-73-18-29-22-43-14-52 18-22 37-14 64 26 50 76 41 147-32 261-40 61-50 70-71 63z"/><path d="m1402 838c-17-17-15-84 4-125 19-39 55-66 80-61 28 5 26 23-5 56-32 33-41 58-38 107 2 32-19 45-41 23z"/><path d="m2066 842c-3-5-5-27-4-51 0-35-5-49-32-76-34-36-35-65-2-65 19 0 62 41 81 77 15 29 14 96-1 111-14 14-35 16-42 4z"/><path d="m1607 813c-37-36 63-113 148-113 66 0 155 52 155 91 0 26-30 32-54 11-57-52-122-56-187-12-47 32-52 34-62 23z"/><path d="m1280 655c-26-31 13-82 44-56 21 17 21 57 0 65-23 9-30 8-44-9z"/><path d="m2176 655c-9-9-16-20-16-25 0-15 32-41 48-38 24 5 39 35 26 56-15 23-38 26-58 7z"/><path d="m1424 566c-10-27 1-51 26-54 31-5 53 23 39 49-12 22-57 25-65 5z"/><path d="m2019 564c-17-21 0-48 33-52 28-3 42 18 33 49-8 23-48 25-66 3z"/><path d="m1285 511c-9-31 5-52 33-49 33 4 50 31 33 52-18 22-58 20-66-3z"/><path d="m2155 510c-4-12-1-27 5-35 27-33 78-5 65 35-4 14-15 20-35 20s-31-6-35-20z"/><path d="m1534 496c-12-31 0-51 30-51 36 0 56 26 37 49-17 20-60 21-67 2z"/><path d="m1909 494c-17-21 0-48 33-52 28-3 42 18 33 49-8 23-48 25-66 3z"/><path d="m1400 432c-19-16-21-22-11-40 13-24 40-29 59-10 35 35-10 81-48 50z"/><path d="m2065 436c-25-18-16-60 14-64 31-5 54 23 41 48-13 24-35 31-55 16z"/><path d="m12843 2638c-33-34-53-75-53-107 0-13 16-25 51-39 78-33 182-106 267-189 67-65 79-73 98-64 46 21 39 60-29 161-48 71-166 189-231 231-33 22-62 39-66 39-3 0-20-15-37-32z"/><path d="m7167 2578c12-66 8-401-6-518-6-58-30-240-52-405-49-367-59-527-35-573 19-36 53-57 113-67 81-13 78-22 79 212 1 222 6 288 59 708 19 149 38 307 41 353l7 82 56 17c34 11 90 17 143 17 76 0 93-3 144-29 109-57 158-169 136-313-29-182-131-296-303-337-35-8-82-15-105-15-49 0-52-2-46-40l4-30h87c176 1 303 49 407 155 183 186 207 473 54 639-120 131-353 147-592 42-12-5-18-4-18 4 0 37-91 115-158 135-22 6-22 5-15-37z"/><path d="m4285 2384c-1-205-8-293-61-689-40-304-51-446-36-496 9-34 8-37-25-63-32-26-72-90-62-100 2-2 27 0 54 4 73 13 358 12 515-1 152-12 199-6 249 37 45 37 67 72 85 133l16 53-28-6c-106-23-255-39-425-44l-197-7v48c0 73 27 312 71 642 23 165 44 354 46 421 5 106 3 126-14 165-23 52-64 76-141 86l-47 5z"/><path d="m10800 2341c0-70-3-155-6-188l-7-61-60-7c-95-10-136-31-158-79-18-39-25-106-13-118 3-4 21 0 40 8 40 17 165 47 170 41 2-2-9-78-26-168-48-270-60-363-60-482 0-180 37-265 139-320l52-29-8 54c-11 76-8 340 5 428 6 41 28 177 49 303l38 227h87c48 0 99 5 113 12 37 16 55 57 55 121v54l-37-18c-37-18-181-44-191-35-2 3-4 53-3 110 2 88-1 114-19 153-26 59-45 80-92 104-68 35-68 34-68-110z"/><path d="m9485 2138c30-179 23-359-26-686-38-252-37-318 6-362 32-33 79-50 142-50h42l-6 118c-10 205 20 368 97 527 56 116 132 214 194 250 55 32 115 34 142 4 30-33 24-191-15-429-40-238-42-332-9-398 33-67 70-85 182-90l91-3-31 25c-18 14-39 44-48 67-23 57-22 209 4 374 42 276 52 370 46 438-13 148-74 217-192 217-81 0-134-29-230-124-85-85-138-165-185-281-16-38-28-65-28-60 0 6 4 53 9 105 18 179-20 292-120 363-29 20-58 37-63 37-6 0-7-17-2-42z"/><path d="m13623 2166c3-8 11-51 18-96 18-127 6-330-37-627l-38-263 20-47c25-61 83-95 157-91l47 3 4 195c4 203 18 299 65 433 62 179 173 305 244 278 14-6 28-19 32-31 11-33-5-116-30-167-26-51-25-63 8-63 82 0 162 61 186 140 34 113-1 260-71 296-133 69-285-65-383-338l-32-89 5 111c6 144-13 220-70 285-22 25-58 55-79 65-45 24-53 25-46 6z"/><path d="m12909 2126c-242-69-410-337-409-653 1-144 41-263 119-346 70-75 120-100 210-105 179-10 328 64 421 207 35 55 35 55 14 75-27 27-59 19-87-21-110-158-345-192-420-62-33 58-45 104-53 218l-7 94 52-7c105-14 243-8 312 13 92 29 182 90 219 148 42 65 53 114 48 208-6 115-42 176-128 221-45 23-223 30-291 10zm168-98c50-24 68-130 37-221-23-68-82-129-156-162-51-23-81-30-155-33l-92-4 16 68c46 204 143 345 250 364 42 7 67 4 100-12z"/><path d="m14799 2116c-228-80-379-331-379-630 0-221 71-366 215-437 61-30 69-31 157-27 161 8 264 62 357 186 45 60 49 69 37 87-26 39-54 31-112-34-62-68-134-108-211-118-157-18-229 68-241 286l-5 104 52-7c94-12 243-8 301 10 120 36 211 107 251 197 34 75 34 211 0 280-44 91-117 126-261 126-74 1-109-4-161-23zm218-110c47-55 37-179-21-263-59-87-164-133-301-133-49 0-65 3-65 14 0 8 12 53 26 102 65 224 177 340 304 313 19-5 45-19 57-33z"/><path d="m5885 1948c0-167-2-193-28-293-49-195-165-392-261-442-44-23-103-32-141-22-41 12-91 66-104 116-45 160 42 440 182 590 68 73 150 131 215 152 36 12 57 31 35 31-5 0-34 4-65 10-135 22-254-26-372-150-224-234-286-664-122-838 51-55 101-76 182-76 62 0 81 4 146 37 120 59 211 158 265 287l23 55v-91c0-144 35-230 115-286 22-15 54-31 71-34l32-6-25 83c-23 78-24 95-20 244 4 122 15 219 47 409 36 219 40 255 30 296-18 75-68 110-158 110h-47z"/><path d="m8905 1938c0-171-3-203-24-282-76-291-215-468-364-468-62 0-94 22-127 88-22 42-25 62-24 144 1 189 97 403 237 525 55 48 173 115 203 115 38 0-3 19-61 28-78 13-163 0-233-34-69-33-192-154-241-237-50-85-99-237-111-347-25-229 47-392 194-435 65-19 92-19 164 3 126 40 233 137 302 274l40 80v-74c0-88 22-179 55-230 25-38 115-98 148-98 9 0 17 1 17 3 0 1-10 31-21 67-43 136-37 295 27 675 38 225 39 289 7 333-28 39-80 62-138 62h-50z"/><path d="m4651 923c-53-28-74-63-74-126 0-66 24-110 71-133 40-19 95-13 123 12 18 16 19 16 19 1 0-10 5-17 10-17 6 0 10 28 10 65v65h-55c-30 0-55-4-55-10 0-5 20-10 45-10 38 0 45-3 45-19 0-33-11-51-41-66-35-19-62-19-98-1-35 19-51 55-51 116 0 60 34 106 84 116 37 6 90-15 100-41 3-9 10-13 16-10 13 8-4 41-28 54-38 20-87 22-121 4z"/><path d="m6120 922c-94-47-93-209 3-256 26-12 48-16 71-12 39 8 86 41 86 62 0 20-8 17-35-13-19-23-31-28-70-28-38 0-51 5-70 27-49 57-40 163 18 199 41 26 94 19 124-16 13-15 25-21 28-14 9 14-15 40-52 56-42 17-61 17-103-5z"/><path d="m11564 929c-36-10-50-24-59-60-10-39 20-66 95-85 77-19 95-33 86-67-13-53-116-61-155-12-21 28-31 31-31 12 0-44 92-78 154-57 40 13 56 35 56 74 0 32-42 61-102 70-60 10-78 23-78 55 0 39 24 56 77 56 34 0 49-5 63-22 24-30 45-31 30-2-11 20-67 50-92 48-7 0-27-5-44-10z"/><path d="m12365 926c-57-25-70-50-70-132 0-69 2-75 32-106 27-27 40-32 81-32 34-1 56 5 69 17 11 9 22 17 26 17 3 0 8-8 10-17 3-10 5 12 6 50l1 67h-55c-30 0-55-4-55-10 0-5 20-10 45-10 38 0 45-3 45-19 0-33-11-51-41-66-46-24-77-19-116 20-34 34-35 38-31 95 5 69 31 106 83 116 36 6 89-15 99-41 3-9 10-13 16-10 17 11-9 46-45 61-42 17-61 17-100 0z"/><path d="m4151 803c-54-134-56-143-43-143 5 0 16 18 25 40l15 40h70 69l13-40c7-22 19-40 26-40 17 0-90 264-109 268-10 2-29-34-66-125zm93 38c14-36 26-68 26-73 0-4-25-8-56-8-49 0-55 2-50 18 26 68 51 131 52 129 1-1 14-31 28-66z"/><path d="m5090 795v-135h100c60 0 100 4 100 10s-35 10-85 10h-85v55 55h65c37 0 65 4 65 10s-28 10-65 10h-65v50 50h80c47 0 80 4 80 10s-38 10-95 10h-95z"/><path d="m5560 795c0-83 4-135 10-135s10 47 10 122v121l82-121c45-67 87-122 95-122 10 0 13 29 13 135 0 83-4 135-10 135s-10-47-10-120v-121l-81 121c-44 66-87 120-95 120-11 0-14-24-14-135z"/><path d="m6560 795v-135h95c57 0 95 4 95 10s-35 10-85 10h-85v55 55h65c37 0 65 4 65 10s-28 10-65 10h-65v50 50h79c44 0 83 5 86 10 4 6-28 10-89 10h-96z"/><path d="m7360 795v-137l80 4c70 3 83 6 106 29 52 53 52 159-2 210-22 20-37 24-105 28l-79 3zm171 86c25-26 29-37 29-86s-4-60-29-86c-26-26-36-29-90-29h-61v115 115h61c54 0 64-3 90-29z"/><path d="m7870 795v-135h95c57 0 95 4 95 10s-35 10-85 10h-85v55 55h65c37 0 65 4 65 10s-28 10-65 10h-65v50 50h80c47 0 80 4 80 10s-37 10-90 10h-90z"/><path d="m8644 915c3-10 23-71 43-137 28-89 41-118 52-116 10 2 26 42 48 117 18 63 34 115 35 117 2 1 19-51 37-117 25-90 37-119 49-117 21 4 105 268 84 268-5 0-24-51-42-112-18-62-35-119-39-125-4-7-22 43-40 112-45 169-51 167-101-20-12-44-25-84-29-88s-23 45-42 109c-19 67-40 119-48 122-10 3-12 0-7-13z"/><path d="m9270 795v-135h101c64 0 98 4 94 10-3 6-44 10-91 10h-84v55 55h65c37 0 65 4 65 10s-28 10-65 10h-65v50 50h85c50 0 85 4 85 10s-38 10-95 10h-95z"/><path d="m9740 795v-135h66c63 0 101 11 116 34 16 23 8 65-16 84-24 18-24 19-5 35 12 11 19 30 19 51 0 50-28 66-112 66h-68zm148 103c7-7 12-24 12-38 0-39-18-50-82-50h-58v50 50h58c32 0 63-5 70-12zm8-133c37-50 5-85-77-85h-59v56 56l61-4c45-3 65-10 75-23z"/><path d="m10550 795v-135h68c112 0 152 37 152 143 0 90-45 127-155 127h-65zm171 86c25-26 29-37 29-86s-4-60-29-86c-26-26-36-29-90-29h-61v115 115h61c54 0 64-3 90-29z"/><path d="m11050 795v-135h100c60 0 100 4 100 10s-37 10-91 10h-90l3 53 3 52 68 3c86 4 79 22-9 22h-64v50 50h85c50 0 85 4 85 10s-38 10-95 10h-95z"/><path d="m11990 795c0-83 4-135 10-135s10 52 10 135-4 135-10 135-10-52-10-135z"/><path d="m12810 795c0-167 18-184 22-21l3 115 78-115c43-63 85-114 93-114 11 0 14 24 14 135 0 170-18 183-22 15l-3-119-80 119c-44 66-86 120-92 120-10 0-13-34-13-135z"/></g></svg>